<svg xmlns="http://www.w3.org/2000/svg" version="1.1" xmlns:xlink="http://www.w3.org/1999/xlink" xmlns:svgjs="http://svgjs.dev/svgjs" width="3840" height="2160" preserveAspectRatio="none" viewBox="0 0 3840 2160"><g mask="url(&quot;#SvgjsMask1087&quot;)" fill="none"><rect width="3840" height="2160" x="0" y="0" fill="rgba(38, 70, 83, 1)"></rect><path d="M0,1034.913C210.846,1082.469,439.587,1081.279,633.376,985.553C837.04,884.949,1022.319,714.424,1088.63,497.161C1152.921,286.517,1035.497,71.862,977.054,-140.479C926.016,-325.917,901.222,-526.707,768.513,-665.92C638.316,-802.499,442.494,-837.24,261.616,-890.983C80.15,-944.901,-103.379,-1022.996,-287.678,-979.742C-476.142,-935.51,-616.358,-789.561,-753.345,-652.777C-899.781,-506.558,-1095.72,-365.975,-1109.163,-159.474C-1122.583,46.677,-939.868,206.169,-820.225,374.584C-721.471,513.594,-605.828,629.081,-473.005,736.011C-324.721,855.388,-185.701,993.028,0,1034.913" fill="#1e3842"></path><path d="M3840 3979.908C4189.608 3993.723 4572.701 3937.303 4829.447 3699.6099999999997 5077.5470000000005 3469.9210000000003 5033.716 3076.236 5156.411 2761.185 5269.946 2469.6549999999997 5572.884 2226.882 5523.294 1917.979 5473.707 1609.092 5104.064 1478.142 4910.929 1232.034 4704.147 968.5360000000001 4660.91 547.656 4350.0470000000005 422.9390000000001 4039.937 298.5239999999999 3709.309 528.923 3388.137 621.097 3064.744 713.9079999999999 2679.962 709.642 2460.992 965.0820000000001 2242.178 1220.3400000000001 2266.857 1597.112 2263.279 1933.302 2260.08 2233.886 2335.5640000000003 2517.359 2441.4790000000003 2798.683 2554.565 3099.053 2654.367 3416.252 2899.562 3623.35 3160.978 3844.148 3498.083 3966.397 3840 3979.908" fill="#2e5464"></path></g><defs><mask id="SvgjsMask1087"><rect width="3840" height="2160" fill="#ffffff"></rect></mask></defs></svg>